<svg width="16" height="16" viewBox="0 0 16 16" fill="none" xmlns="http://www.w3.org/2000/svg">
<path d="M3.70147 13.9789C3.47137 13.9724 3.24491 13.9198 3.03555 13.8241C2.82619 13.7284 2.63819 13.5916 2.48273 13.4218C2.32726 13.252 2.2075 13.0528 2.13055 12.8358C2.05361 12.6189 2.02105 12.3886 2.03481 12.1589C2.02681 10.7235 2.03481 9.2882 2.03481 7.85286C2.03481 7.76446 2.06992 7.67967 2.13244 7.61716C2.19495 7.55465 2.27973 7.51953 2.36814 7.51953C2.45654 7.51953 2.54133 7.55465 2.60384 7.61716C2.66635 7.67967 2.70147 7.76446 2.70147 7.85286C2.70147 9.31953 2.68014 10.7862 2.70147 12.2529C2.71214 12.9909 3.26681 13.3122 3.92681 13.3122H12.2355C12.4452 13.317 12.6514 13.2578 12.8267 13.1425C13.002 13.0272 13.1381 12.8613 13.2168 12.6669C13.2811 12.437 13.3036 12.1974 13.2835 11.9595V7.85286C13.2835 7.76446 13.3186 7.67967 13.3811 7.61716C13.4436 7.55465 13.5284 7.51953 13.6168 7.51953C13.7052 7.51953 13.79 7.55465 13.8525 7.61716C13.915 7.67967 13.9501 7.76446 13.9501 7.85286C13.9501 9.33553 14.0068 10.8295 13.9501 12.3109C13.9444 12.5377 13.8936 12.7612 13.8007 12.9682C13.7078 13.1752 13.5747 13.3617 13.409 13.5168C13.2434 13.6719 13.0485 13.7925 12.8359 13.8716C12.6232 13.9507 12.3969 13.9867 12.1701 13.9775L3.70147 13.9789Z" fill="black"/>
<path d="M8.22477 2.11778C8.16996 2.06174 8.09577 2.02882 8.01744 2.02578C8.0081 2.02666 7.99855 2.02533 7.98877 2.02178C7.9741 2.01644 7.97077 2.02178 7.96144 2.02578C7.88288 2.02865 7.80842 2.06158 7.75344 2.11778L5.30744 4.56378C5.24672 4.62664 5.21312 4.71084 5.21388 4.79824C5.21464 4.88564 5.2497 4.96925 5.3115 5.03105C5.3733 5.09285 5.45691 5.12791 5.5443 5.12867C5.6317 5.12943 5.7159 5.09583 5.77877 5.03511L7.6561 3.15844V10.3198C7.6561 10.4082 7.69122 10.493 7.75374 10.5555C7.81625 10.618 7.90103 10.6531 7.98944 10.6531C8.07784 10.6531 8.16263 10.618 8.22514 10.5555C8.28765 10.493 8.32277 10.4082 8.32277 10.3198V3.15844L10.2001 5.03511C10.263 5.09583 10.3472 5.12943 10.4346 5.12867C10.522 5.12791 10.6056 5.09285 10.6674 5.03105C10.7292 4.96925 10.7642 4.88564 10.765 4.79824C10.7658 4.71084 10.7322 4.62664 10.6714 4.56378L8.22477 2.11778Z" fill="black"/>
</svg>
