<svg width="21" height="21" viewBox="0 0 21 21" fill="none" xmlns="http://www.w3.org/2000/svg">
<path d="M10.2214 17.3363C11.9895 17.3363 13.6852 16.6339 14.9354 15.3836C16.1856 14.1334 16.888 12.4377 16.888 10.6696C16.888 8.90149 16.1856 7.20579 14.9354 5.95555C13.6852 4.70531 11.9895 4.00293 10.2214 4.00293C8.45324 4.00293 6.75755 4.70531 5.50731 5.95555C4.25707 7.20579 3.55469 8.90149 3.55469 10.6696C3.55469 12.4377 4.25707 14.1334 5.50731 15.3836C6.75755 16.6339 8.45324 17.3363 10.2214 17.3363Z" stroke="#222222" stroke-width="1.66667" stroke-linecap="round" stroke-linejoin="round"/>
<path d="M10.2214 12.3363C10.6634 12.3363 11.0873 12.1607 11.3999 11.8481C11.7124 11.5355 11.888 11.1116 11.888 10.6696C11.888 10.2276 11.7124 9.80365 11.3999 9.49109C11.0873 9.17852 10.6634 9.00293 10.2214 9.00293C9.77933 9.00293 9.3554 9.17852 9.04284 9.49109C8.73028 9.80365 8.55469 10.2276 8.55469 10.6696C8.55469 11.1116 8.73028 11.5355 9.04284 11.8481C9.3554 12.1607 9.77933 12.3363 10.2214 12.3363Z" stroke="#222222" stroke-width="1.66667" stroke-linecap="round" stroke-linejoin="round"/>
<path d="M10.2207 2.33691V4.00358" stroke="#222222" stroke-width="1.66667" stroke-linecap="round" stroke-linejoin="round"/>
<path d="M10.2207 19.0036V17.3369" stroke="#222222" stroke-width="1.66667" stroke-linecap="round" stroke-linejoin="round"/>
<path d="M14.388 17.887L13.5547 16.4453" stroke="#222222" stroke-width="1.66667" stroke-linecap="round" stroke-linejoin="round"/>
<path d="M9.38802 9.22813L6.05469 3.45312" stroke="#222222" stroke-width="1.66667" stroke-linecap="round" stroke-linejoin="round"/>
<path d="M17.4378 14.8363L15.9961 14.0029" stroke="#222222" stroke-width="1.66667" stroke-linecap="round" stroke-linejoin="round"/>
<path d="M3.00391 6.50293L4.44557 7.33626" stroke="#222222" stroke-width="1.66667" stroke-linecap="round" stroke-linejoin="round"/>
<path d="M11.8867 10.6699H18.5534" stroke="#222222" stroke-width="1.66667" stroke-linecap="round" stroke-linejoin="round"/>
<path d="M1.88672 10.6699H3.55339" stroke="#222222" stroke-width="1.66667" stroke-linecap="round" stroke-linejoin="round"/>
<path d="M17.4378 6.50293L15.9961 7.33626" stroke="#222222" stroke-width="1.66667" stroke-linecap="round" stroke-linejoin="round"/>
<path d="M3.00391 14.8363L4.44557 14.0029" stroke="#222222" stroke-width="1.66667" stroke-linecap="round" stroke-linejoin="round"/>
<path d="M14.388 3.45312L13.5547 4.89479" stroke="#222222" stroke-width="1.66667" stroke-linecap="round" stroke-linejoin="round"/>
<path d="M9.38802 12.1113L6.05469 17.8863" stroke="#222222" stroke-width="1.66667" stroke-linecap="round" stroke-linejoin="round"/>
</svg>
